<?xml version="1.0" encoding="iso-8859-1"?>
<!-- Uploaded to: SVG Repo, www.svgrepo.com, Generator: SVG Repo Mixer Tools -->
<svg height="800px" width="800px" version="1.1" id="Layer_1" xmlns="http://www.w3.org/2000/svg" xmlns:xlink="http://www.w3.org/1999/xlink" 
	 viewBox="0 0 512 512" xml:space="preserve">
<path style="fill:#FFD782;" d="M409.053,64.651c-1.992-5.728,2.286-11.686,8.351-11.686h6.321c9.75,0,17.655-7.905,17.655-17.655
	V17.655C441.379,7.904,433.474,0,423.724,0h-61.793c-9.75,0-17.655,7.904-17.655,17.655v16.18c0,12.332,1.108,24.587,3.348,36.714
	c6.937,37.557,22.498,128.022,25.662,199.648c2.434,55.109-31.704,106.493-84.672,121.902c-11.104,3.23-22.014,4.552-32.614,4.548
	c-10.6,0.004-21.51-1.318-32.614-4.548c-52.968-15.409-87.106-66.792-84.672-121.902c3.164-71.627,18.726-162.091,25.662-199.648
	c2.24-12.127,3.348-24.382,3.348-36.714v-16.18C167.724,7.904,159.819,0,150.069,0H88.276c-9.75,0-17.655,7.904-17.655,17.655V35.31
	c0,9.75,7.905,17.655,17.655,17.655h6.321c6.065,0,10.343,5.958,8.351,11.686c-14.408,41.44-58.809,182.195-58.809,244.314
	C44.138,421.098,143.868,512,256,512s211.862-90.902,211.862-203.034C467.862,246.846,423.46,106.091,409.053,64.651z
	 M100.448,194.201c9.751,0,17.655,7.905,17.655,17.655c0,9.751-7.904,17.655-17.655,17.655c-9.75,0-17.655-7.904-17.655-17.655
	C82.793,202.106,90.698,194.201,100.448,194.201z M92.832,318.887c-9.75,0-17.655-7.904-17.655-17.655
	c0-9.75,7.905-17.655,17.655-17.655s17.655,7.905,17.655,17.655C110.487,310.983,102.583,318.887,92.832,318.887z M118.915,401.65
	c-9.75,0-17.655-7.904-17.655-17.655c0-9.75,7.905-17.655,17.655-17.655s17.655,7.905,17.655,17.655
	C136.57,393.746,128.665,401.65,118.915,401.65z M185.379,460.419c-9.75,0-17.655-7.905-17.655-17.655
	c0-9.75,7.905-17.655,17.655-17.655c9.75,0,17.655,7.905,17.655,17.655C203.034,452.514,195.129,460.419,185.379,460.419z
	 M326.621,460.419c-9.75,0-17.655-7.905-17.655-17.655c0-9.75,7.905-17.655,17.655-17.655s17.655,7.905,17.655,17.655
	C344.276,452.514,336.371,460.419,326.621,460.419z M411.552,194.201c9.75,0,17.655,7.905,17.655,17.655
	c0,9.751-7.905,17.655-17.655,17.655c-9.751,0-17.655-7.904-17.655-17.655C393.897,202.106,401.801,194.201,411.552,194.201z
	 M393.085,401.65c-9.75,0-17.655-7.904-17.655-17.655c0-9.75,7.905-17.655,17.655-17.655s17.655,7.905,17.655,17.655
	C410.74,393.746,402.836,401.65,393.085,401.65z M419.168,318.887c-9.75,0-17.655-7.904-17.655-17.655
	c0-9.75,7.905-17.655,17.655-17.655s17.655,7.905,17.655,17.655C436.823,310.983,428.918,318.887,419.168,318.887z"/>
<g>
	<path style="fill:#FFC36E;" d="M100.902,70.621h31.512c4.875,0,8.828-3.953,8.828-8.828s-3.953-8.828-8.828-8.828H94.596
		c6.065,0,10.343,5.958,8.351,11.686C102.325,66.44,101.629,68.477,100.902,70.621z"/>
	<path style="fill:#FFC36E;" d="M110.345,295.724c0-39.512,6.541-75.879,7.321-80.056c-1.746,7.914-8.779,13.844-17.218,13.844
		c-9.75,0-17.655-7.904-17.655-17.655l0.294-3.366c-0.328,1.69-8.052,41.914-8.052,87.233c0,1.705,0.136,3.391,0.184,5.089
		c0.227-9.553,8.006-17.237,17.613-17.237c9.75,0,17.655,7.905,17.655,17.655c0,9.751-7.905,17.655-17.655,17.655
		c-9.447,0-17.094-7.437-17.566-16.767c1.187,32.77,11.352,64.183,28.663,91.109c-1.663-2.692-2.669-5.837-2.669-9.235
		c0-9.75,7.905-17.655,17.655-17.655c5.169,0,9.774,2.261,13.003,5.801C118.049,349.698,110.345,323.462,110.345,295.724z"/>
	<path style="fill:#FFC36E;" d="M167.724,442.764c0-9.75,7.905-17.655,17.655-17.655c2.95,0,5.688,0.792,8.134,2.071
		c-0.168-0.088-0.306-0.21-0.478-0.292c-24.066-11.575-43.756-28.925-57.921-49.892c0.929,2.147,1.457,4.51,1.457,6.999
		c0,9.751-7.905,17.655-17.655,17.655c-5.817,0-10.934-2.85-14.151-7.191c17.785,27.179,42.751,49.724,72.96,64.256
		c0.181,0.086,0.372,0.113,0.554,0.192C172.071,456.172,167.724,449.984,167.724,442.764z"/>
	<path style="fill:#FFC36E;" d="M411.099,70.621h-31.512c-4.875,0-8.828-3.953-8.828-8.828s3.953-8.828,8.828-8.828h37.817
		c-6.065,0-10.343,5.958-8.351,11.686C409.675,66.44,410.371,68.477,411.099,70.621z"/>
	<path style="fill:#FFC36E;" d="M401.655,295.724c0-39.512-6.541-75.879-7.321-80.056c1.746,7.914,8.779,13.844,17.218,13.844
		c9.75,0,17.655-7.904,17.655-17.655l-0.293-3.366c0.328,1.69,8.052,41.914,8.052,87.233c0,1.705-0.136,3.391-0.184,5.089
		c-0.227-9.553-8.006-17.237-17.613-17.237c-9.75,0-17.655,7.905-17.655,17.655c0,9.751,7.905,17.655,17.655,17.655
		c9.447,0,17.094-7.437,17.566-16.767c-1.187,32.77-11.352,64.183-28.663,91.109c1.663-2.692,2.669-5.837,2.669-9.235
		c0-9.75-7.905-17.655-17.655-17.655c-5.169,0-9.774,2.261-13.003,5.801C393.951,349.698,401.655,323.462,401.655,295.724z"/>
	<path style="fill:#FFC36E;" d="M344.276,442.764c0-9.75-7.905-17.655-17.655-17.655c-2.95,0-5.688,0.792-8.134,2.071
		c0.168-0.088,0.306-0.21,0.478-0.292c24.066-11.575,43.756-28.925,57.921-49.892c-0.929,2.147-1.457,4.51-1.457,6.999
		c0,9.751,7.905,17.655,17.655,17.655c5.817,0,10.934-2.85,14.151-7.191c-17.785,27.179-42.751,49.724-72.96,64.256
		c-0.181,0.086-0.372,0.113-0.554,0.192C339.929,456.172,344.276,449.984,344.276,442.764z"/>
</g>
</svg>